# xmcd CD database file
#
# Track frame offsets:
#	150
#	17145
#	33349
#	55700
#	74871
#	95702
#	114128
#	130281
#	150278
#	178620
#	201699
#	221993
#	239489
#	259555
#	280692
#	299194
#
# Disc length: 4211 seconds
#
# Revision: 0
# Processed by: cddbd v1.5.2PL0 Copyright (c) Steve Scherf et al.
# Submitted via: CDex 1.70beta2
#
DISCID=fb107110
DTITLE=JENNIFER LOPEZ - Love don't cost a thing(爱情无价)
DYEAR=1900
DGENRE=Jazz
TTITLE0=LOVE DON'T COST A THING（爱情无价）
TTITLE1=DO YOU KNOW WHERE YOU ARE GOING TO（明白自己的方向吗）
TTITLE2=I'M REAL（真情女人）
TTITLE3=IF YOU HAD MY LOVE（你是否爱过我）
TTITLE4=NO ME AMES（你不爱我）
TTITLE5=WAITING FOR TONIGHT（等待今晚）
TTITLE6=PLAY（玩耍）
TTITLE7=COULD THIS BE LOVE（这是爱吗）
TTITLE8=SHOULD'VE EVER（不该）
TTITLE9=FEELING SO GOOD（感觉真好）
TTITLE10=TOO LATE（太迟）
TTITLE11=PROMISE ME YOU'LL TRY（答应我你会）
TTITLE12=OPEN OFF MY LOVE（开启我的爱）
TTITLE13=TALK ABOUT US（谈谈我俩）
TTITLE14=AIN'T IT FUNNY（不是开玩笑）
TTITLE15=BAILA（舞）
EXTD=
EXTT0=
EXTT1=
EXTT2=
EXTT3=
EXTT4=
EXTT5=
EXTT6=
EXTT7=
EXTT8=
EXTT9=
EXTT10=
EXTT11=
EXTT12=
EXTT13=
EXTT14=
EXTT15=
PLAYORDER=
